<svg width="26" height="26" viewBox="0 0 26 26" fill="none" xmlns="http://www.w3.org/2000/svg">
<path d="M17.6637 16.5181C18.9062 14.9978 19.5562 13.079 19.4934 11.1166C19.4306 9.1542 18.6594 7.28089 17.3222 5.84314C15.9851 4.40539 14.1726 3.50047 12.2199 3.29572C10.2671 3.09097 8.30632 3.60025 6.70005 4.72938C5.09377 5.85851 3.9507 7.53109 3.48223 9.43781C3.01376 11.3445 3.25159 13.3564 4.15172 15.1013C5.05185 16.8463 6.5534 18.2062 8.37867 18.9297C10.2039 19.6532 12.2295 19.6913 14.0806 19.0368L13.5444 17.5012C12.8484 17.7506 12.1143 17.8771 11.375 17.875C9.87089 17.8757 8.41311 17.3547 7.25011 16.4009C6.08711 15.4471 5.29088 14.1195 4.99714 12.6444C4.70339 11.1693 4.93032 9.63791 5.63924 8.31136C6.34816 6.98481 7.49518 5.94517 8.88481 5.36964C10.2744 4.79411 11.8207 4.71832 13.2599 5.15519C14.6992 5.59205 15.9424 6.51453 16.7776 7.76539C17.6129 9.01625 17.9885 10.5181 17.8404 12.0149C17.6923 13.5116 17.0298 14.9108 15.9656 15.9737V17.1193L21.3606 22.5143L22.5144 21.3606L17.6637 16.5181Z" fill="#1D1D1D"/>
</svg>
